<mxfile host="app.diagrams.net" agent="Mozilla/5.0 (Windows NT 10.0; Win64; x64) AppleWebKit/537.36 (KHTML, like Gecko) Chrome/129.0.0.0 Safari/537.36 Edg/129.0.0.0" version="24.7.14" pages="2">
  <diagram name="Miftah Industri" id="3fKfXjBYExYGZ-MT1RZL">
    <mxGraphModel dx="2173" dy="603" grid="1" gridSize="10" guides="1" tooltips="1" connect="1" arrows="1" fold="1" page="1" pageScale="1" pageWidth="827" pageHeight="1169" math="0" shadow="0">
      <root>
        <mxCell id="0" />
        <mxCell id="1" parent="0" />
        <mxCell id="k48HczY9cWNNFRX9xtNF-1" value="Toko Hani" style="rounded=1;whiteSpace=wrap;html=1;" vertex="1" parent="1">
          <mxGeometry x="350" y="340" width="120" height="60" as="geometry" />
        </mxCell>
        <mxCell id="k48HczY9cWNNFRX9xtNF-2" value="" style="endArrow=classic;html=1;rounded=0;exitX=0.5;exitY=1;exitDx=0;exitDy=0;" edge="1" parent="1" source="k48HczY9cWNNFRX9xtNF-1" target="k48HczY9cWNNFRX9xtNF-3">
          <mxGeometry width="50" height="50" relative="1" as="geometry">
            <mxPoint x="385" y="470" as="sourcePoint" />
            <mxPoint x="215" y="450" as="targetPoint" />
          </mxGeometry>
        </mxCell>
        <mxCell id="k48HczY9cWNNFRX9xtNF-3" value="Karpet" style="rounded=1;whiteSpace=wrap;html=1;" vertex="1" parent="1">
          <mxGeometry x="25" y="480" width="120" height="60" as="geometry" />
        </mxCell>
        <mxCell id="k48HczY9cWNNFRX9xtNF-4" value="Busa" style="rounded=1;whiteSpace=wrap;html=1;" vertex="1" parent="1">
          <mxGeometry x="195" y="480" width="120" height="60" as="geometry" />
        </mxCell>
        <mxCell id="k48HczY9cWNNFRX9xtNF-5" value="" style="endArrow=classic;html=1;rounded=0;exitX=0.5;exitY=1;exitDx=0;exitDy=0;entryX=0.5;entryY=0;entryDx=0;entryDy=0;" edge="1" parent="1" source="k48HczY9cWNNFRX9xtNF-1" target="k48HczY9cWNNFRX9xtNF-4">
          <mxGeometry width="50" height="50" relative="1" as="geometry">
            <mxPoint x="385" y="470" as="sourcePoint" />
            <mxPoint x="435" y="420" as="targetPoint" />
          </mxGeometry>
        </mxCell>
        <mxCell id="k48HczY9cWNNFRX9xtNF-6" value="Interior" style="rounded=1;whiteSpace=wrap;html=1;" vertex="1" parent="1">
          <mxGeometry x="380" y="480" width="120" height="60" as="geometry" />
        </mxCell>
        <mxCell id="k48HczY9cWNNFRX9xtNF-7" value="" style="endArrow=classic;html=1;rounded=0;exitX=0.5;exitY=1;exitDx=0;exitDy=0;entryX=0.5;entryY=0;entryDx=0;entryDy=0;" edge="1" parent="1" source="k48HczY9cWNNFRX9xtNF-1" target="k48HczY9cWNNFRX9xtNF-6">
          <mxGeometry width="50" height="50" relative="1" as="geometry">
            <mxPoint x="385" y="470" as="sourcePoint" />
            <mxPoint x="435" y="420" as="targetPoint" />
          </mxGeometry>
        </mxCell>
        <mxCell id="k48HczY9cWNNFRX9xtNF-8" value="" style="endArrow=classic;html=1;rounded=0;exitX=0.5;exitY=1;exitDx=0;exitDy=0;entryX=0.5;entryY=0;entryDx=0;entryDy=0;" edge="1" parent="1" source="k48HczY9cWNNFRX9xtNF-1" target="k48HczY9cWNNFRX9xtNF-9">
          <mxGeometry width="50" height="50" relative="1" as="geometry">
            <mxPoint x="385" y="470" as="sourcePoint" />
            <mxPoint x="605" y="480" as="targetPoint" />
          </mxGeometry>
        </mxCell>
        <mxCell id="k48HczY9cWNNFRX9xtNF-9" value="Terpal" style="rounded=1;whiteSpace=wrap;html=1;" vertex="1" parent="1">
          <mxGeometry x="555" y="480" width="120" height="60" as="geometry" />
        </mxCell>
        <mxCell id="k48HczY9cWNNFRX9xtNF-10" value="Plastik" style="rounded=1;whiteSpace=wrap;html=1;" vertex="1" parent="1">
          <mxGeometry x="705" y="480" width="120" height="60" as="geometry" />
        </mxCell>
        <mxCell id="k48HczY9cWNNFRX9xtNF-11" value="" style="endArrow=classic;html=1;rounded=0;exitX=0.5;exitY=1;exitDx=0;exitDy=0;entryX=0.5;entryY=0;entryDx=0;entryDy=0;" edge="1" parent="1" source="k48HczY9cWNNFRX9xtNF-1" target="k48HczY9cWNNFRX9xtNF-10">
          <mxGeometry width="50" height="50" relative="1" as="geometry">
            <mxPoint x="385" y="470" as="sourcePoint" />
            <mxPoint x="435" y="420" as="targetPoint" />
          </mxGeometry>
        </mxCell>
        <mxCell id="k48HczY9cWNNFRX9xtNF-12" value="Miftah Industri" style="rounded=1;whiteSpace=wrap;html=1;" vertex="1" parent="1">
          <mxGeometry x="350" y="60" width="120" height="60" as="geometry" />
        </mxCell>
        <mxCell id="k48HczY9cWNNFRX9xtNF-13" value="Pax8" style="rounded=1;whiteSpace=wrap;html=1;" vertex="1" parent="1">
          <mxGeometry x="950" y="340" width="120" height="60" as="geometry" />
        </mxCell>
        <mxCell id="k48HczY9cWNNFRX9xtNF-14" value="Microsoft" style="rounded=1;whiteSpace=wrap;html=1;" vertex="1" parent="1">
          <mxGeometry x="-340" y="340" width="120" height="60" as="geometry" />
        </mxCell>
        <mxCell id="k48HczY9cWNNFRX9xtNF-15" value="President Donuts" style="rounded=1;whiteSpace=wrap;html=1;" vertex="1" parent="1">
          <mxGeometry x="1250" y="340" width="120" height="60" as="geometry" />
        </mxCell>
        <mxCell id="k48HczY9cWNNFRX9xtNF-16" value="Annata" style="rounded=1;whiteSpace=wrap;html=1;" vertex="1" parent="1">
          <mxGeometry x="-640" y="340" width="120" height="60" as="geometry" />
        </mxCell>
        <mxCell id="k48HczY9cWNNFRX9xtNF-17" value="" style="endArrow=classic;html=1;rounded=0;exitX=0.5;exitY=1;exitDx=0;exitDy=0;entryX=0.5;entryY=0;entryDx=0;entryDy=0;" edge="1" parent="1" source="k48HczY9cWNNFRX9xtNF-14" target="k48HczY9cWNNFRX9xtNF-18">
          <mxGeometry width="50" height="50" relative="1" as="geometry">
            <mxPoint x="-40" y="440" as="sourcePoint" />
            <mxPoint x="-270" y="460" as="targetPoint" />
          </mxGeometry>
        </mxCell>
        <mxCell id="k48HczY9cWNNFRX9xtNF-18" value="Developer" style="rounded=1;whiteSpace=wrap;html=1;" vertex="1" parent="1">
          <mxGeometry x="-570" y="480" width="120" height="60" as="geometry" />
        </mxCell>
        <mxCell id="k48HczY9cWNNFRX9xtNF-19" value="Reseller" style="rounded=1;whiteSpace=wrap;html=1;" vertex="1" parent="1">
          <mxGeometry x="-380" y="480" width="120" height="60" as="geometry" />
        </mxCell>
        <mxCell id="k48HczY9cWNNFRX9xtNF-20" value="Partner" style="rounded=1;whiteSpace=wrap;html=1;" vertex="1" parent="1">
          <mxGeometry x="-180" y="480" width="120" height="60" as="geometry" />
        </mxCell>
        <mxCell id="k48HczY9cWNNFRX9xtNF-21" value="" style="endArrow=classic;html=1;rounded=0;exitX=0.5;exitY=1;exitDx=0;exitDy=0;" edge="1" parent="1" source="k48HczY9cWNNFRX9xtNF-14" target="k48HczY9cWNNFRX9xtNF-19">
          <mxGeometry width="50" height="50" relative="1" as="geometry">
            <mxPoint x="-40" y="440" as="sourcePoint" />
            <mxPoint x="10" y="390" as="targetPoint" />
          </mxGeometry>
        </mxCell>
        <mxCell id="k48HczY9cWNNFRX9xtNF-22" value="" style="endArrow=classic;html=1;rounded=0;exitX=0.5;exitY=1;exitDx=0;exitDy=0;entryX=0.5;entryY=0;entryDx=0;entryDy=0;" edge="1" parent="1" source="k48HczY9cWNNFRX9xtNF-14" target="k48HczY9cWNNFRX9xtNF-20">
          <mxGeometry width="50" height="50" relative="1" as="geometry">
            <mxPoint x="-40" y="440" as="sourcePoint" />
            <mxPoint x="10" y="390" as="targetPoint" />
          </mxGeometry>
        </mxCell>
        <mxCell id="k48HczY9cWNNFRX9xtNF-23" value="" style="endArrow=classic;html=1;rounded=0;exitX=0.5;exitY=1;exitDx=0;exitDy=0;" edge="1" parent="1" source="k48HczY9cWNNFRX9xtNF-16" target="k48HczY9cWNNFRX9xtNF-24">
          <mxGeometry width="50" height="50" relative="1" as="geometry">
            <mxPoint x="-420" y="440" as="sourcePoint" />
            <mxPoint x="-700" y="470" as="targetPoint" />
          </mxGeometry>
        </mxCell>
        <mxCell id="k48HczY9cWNNFRX9xtNF-24" value="Sales Industri Alat Berat" style="rounded=1;whiteSpace=wrap;html=1;" vertex="1" parent="1">
          <mxGeometry x="-820" y="480" width="120" height="60" as="geometry" />
        </mxCell>
        <mxCell id="k48HczY9cWNNFRX9xtNF-25" value="" style="endArrow=classic;html=1;rounded=0;exitX=0.5;exitY=1;exitDx=0;exitDy=0;entryX=0.5;entryY=0;entryDx=0;entryDy=0;" edge="1" parent="1" source="k48HczY9cWNNFRX9xtNF-13" target="k48HczY9cWNNFRX9xtNF-26">
          <mxGeometry width="50" height="50" relative="1" as="geometry">
            <mxPoint x="1250" y="440" as="sourcePoint" />
            <mxPoint x="1010" y="480" as="targetPoint" />
          </mxGeometry>
        </mxCell>
        <mxCell id="k48HczY9cWNNFRX9xtNF-26" value="Security" style="rounded=1;whiteSpace=wrap;html=1;" vertex="1" parent="1">
          <mxGeometry x="950" y="470" width="120" height="60" as="geometry" />
        </mxCell>
        <mxCell id="k48HczY9cWNNFRX9xtNF-27" value="" style="endArrow=classic;html=1;rounded=0;exitX=0.5;exitY=1;exitDx=0;exitDy=0;entryX=0.5;entryY=0;entryDx=0;entryDy=0;" edge="1" parent="1" source="k48HczY9cWNNFRX9xtNF-15" target="k48HczY9cWNNFRX9xtNF-28">
          <mxGeometry width="50" height="50" relative="1" as="geometry">
            <mxPoint x="1250" y="440" as="sourcePoint" />
            <mxPoint x="1310" y="480" as="targetPoint" />
          </mxGeometry>
        </mxCell>
        <mxCell id="k48HczY9cWNNFRX9xtNF-28" value="Foods" style="rounded=1;whiteSpace=wrap;html=1;" vertex="1" parent="1">
          <mxGeometry x="1250" y="470" width="120" height="60" as="geometry" />
        </mxCell>
        <mxCell id="k48HczY9cWNNFRX9xtNF-29" value="" style="endArrow=classic;html=1;rounded=0;exitX=0.5;exitY=1;exitDx=0;exitDy=0;entryX=0.5;entryY=0;entryDx=0;entryDy=0;" edge="1" parent="1" source="k48HczY9cWNNFRX9xtNF-18" target="k48HczY9cWNNFRX9xtNF-32">
          <mxGeometry width="50" height="50" relative="1" as="geometry">
            <mxPoint x="-220" y="440" as="sourcePoint" />
            <mxPoint x="-400" y="600" as="targetPoint" />
          </mxGeometry>
        </mxCell>
        <mxCell id="k48HczY9cWNNFRX9xtNF-30" value="" style="endArrow=classic;html=1;rounded=0;exitX=0.5;exitY=1;exitDx=0;exitDy=0;" edge="1" parent="1" source="k48HczY9cWNNFRX9xtNF-19" target="k48HczY9cWNNFRX9xtNF-33">
          <mxGeometry width="50" height="50" relative="1" as="geometry">
            <mxPoint x="-220" y="440" as="sourcePoint" />
            <mxPoint x="-240" y="600" as="targetPoint" />
          </mxGeometry>
        </mxCell>
        <mxCell id="k48HczY9cWNNFRX9xtNF-31" value="" style="endArrow=classic;html=1;rounded=0;exitX=0.5;exitY=1;exitDx=0;exitDy=0;" edge="1" parent="1" source="k48HczY9cWNNFRX9xtNF-20" target="k48HczY9cWNNFRX9xtNF-34">
          <mxGeometry width="50" height="50" relative="1" as="geometry">
            <mxPoint x="-220" y="440" as="sourcePoint" />
            <mxPoint x="-80" y="600" as="targetPoint" />
          </mxGeometry>
        </mxCell>
        <mxCell id="k48HczY9cWNNFRX9xtNF-32" value="ISV" style="rounded=1;whiteSpace=wrap;html=1;" vertex="1" parent="1">
          <mxGeometry x="-670" y="620" width="120" height="60" as="geometry" />
        </mxCell>
        <mxCell id="k48HczY9cWNNFRX9xtNF-33" value="Menjual Produk" style="rounded=1;whiteSpace=wrap;html=1;" vertex="1" parent="1">
          <mxGeometry x="-450" y="620" width="120" height="60" as="geometry" />
        </mxCell>
        <mxCell id="k48HczY9cWNNFRX9xtNF-34" value="Education and Training Services" style="rounded=1;whiteSpace=wrap;html=1;" vertex="1" parent="1">
          <mxGeometry x="-300" y="620" width="120" height="60" as="geometry" />
        </mxCell>
        <mxCell id="k48HczY9cWNNFRX9xtNF-35" value="" style="endArrow=classic;html=1;rounded=0;exitX=0.5;exitY=1;exitDx=0;exitDy=0;" edge="1" parent="1" source="k48HczY9cWNNFRX9xtNF-20" target="k48HczY9cWNNFRX9xtNF-36">
          <mxGeometry width="50" height="50" relative="1" as="geometry">
            <mxPoint x="-260" y="590" as="sourcePoint" />
            <mxPoint x="-20" y="590" as="targetPoint" />
          </mxGeometry>
        </mxCell>
        <mxCell id="k48HczY9cWNNFRX9xtNF-36" value="Fabric Partner" style="rounded=1;whiteSpace=wrap;html=1;" vertex="1" parent="1">
          <mxGeometry x="-30" y="620" width="120" height="60" as="geometry" />
        </mxCell>
        <mxCell id="k48HczY9cWNNFRX9xtNF-37" value="" style="endArrow=classic;html=1;rounded=0;exitX=0.5;exitY=1;exitDx=0;exitDy=0;" edge="1" parent="1" source="k48HczY9cWNNFRX9xtNF-36" target="k48HczY9cWNNFRX9xtNF-39">
          <mxGeometry width="50" height="50" relative="1" as="geometry">
            <mxPoint x="-260" y="590" as="sourcePoint" />
            <mxPoint x="30" y="750" as="targetPoint" />
          </mxGeometry>
        </mxCell>
        <mxCell id="k48HczY9cWNNFRX9xtNF-38" value="Technology" style="edgeLabel;html=1;align=center;verticalAlign=middle;resizable=0;points=[];" vertex="1" connectable="0" parent="k48HczY9cWNNFRX9xtNF-37">
          <mxGeometry x="-0.3588" y="1" relative="1" as="geometry">
            <mxPoint as="offset" />
          </mxGeometry>
        </mxCell>
        <mxCell id="k48HczY9cWNNFRX9xtNF-39" value="Microsoft Power BI" style="rounded=1;whiteSpace=wrap;html=1;" vertex="1" parent="1">
          <mxGeometry x="-30" y="740" width="120" height="60" as="geometry" />
        </mxCell>
        <mxCell id="k48HczY9cWNNFRX9xtNF-40" value="" style="endArrow=classic;html=1;rounded=0;exitX=0.5;exitY=1;exitDx=0;exitDy=0;" edge="1" parent="1" source="k48HczY9cWNNFRX9xtNF-39" target="k48HczY9cWNNFRX9xtNF-41">
          <mxGeometry width="50" height="50" relative="1" as="geometry">
            <mxPoint x="-30" y="790" as="sourcePoint" />
            <mxPoint x="30" y="860" as="targetPoint" />
          </mxGeometry>
        </mxCell>
        <mxCell id="k48HczY9cWNNFRX9xtNF-41" value="DAX, SQL, Phyton" style="rounded=1;whiteSpace=wrap;html=1;" vertex="1" parent="1">
          <mxGeometry x="-30" y="860" width="120" height="60" as="geometry" />
        </mxCell>
        <mxCell id="k48HczY9cWNNFRX9xtNF-42" value="" style="endArrow=classic;html=1;rounded=0;exitX=0.5;exitY=1;exitDx=0;exitDy=0;" edge="1" parent="1" source="k48HczY9cWNNFRX9xtNF-34" target="k48HczY9cWNNFRX9xtNF-43">
          <mxGeometry width="50" height="50" relative="1" as="geometry">
            <mxPoint x="300" y="810" as="sourcePoint" />
            <mxPoint x="-240" y="740" as="targetPoint" />
          </mxGeometry>
        </mxCell>
        <mxCell id="k48HczY9cWNNFRX9xtNF-43" value="Pelatihan" style="rounded=1;whiteSpace=wrap;html=1;" vertex="1" parent="1">
          <mxGeometry x="-300" y="739.9999999999998" width="120" height="60" as="geometry" />
        </mxCell>
        <mxCell id="k48HczY9cWNNFRX9xtNF-44" value="" style="endArrow=classic;html=1;rounded=0;exitX=1;exitY=0.5;exitDx=0;exitDy=0;" edge="1" parent="1" source="k48HczY9cWNNFRX9xtNF-36" target="k48HczY9cWNNFRX9xtNF-45">
          <mxGeometry width="50" height="50" relative="1" as="geometry">
            <mxPoint x="300" y="810" as="sourcePoint" />
            <mxPoint x="200" y="650" as="targetPoint" />
          </mxGeometry>
        </mxCell>
        <mxCell id="k48HczY9cWNNFRX9xtNF-45" value="Kesehatan" style="rounded=1;whiteSpace=wrap;html=1;" vertex="1" parent="1">
          <mxGeometry x="340" y="619.9999999999998" width="120" height="60" as="geometry" />
        </mxCell>
        <mxCell id="k48HczY9cWNNFRX9xtNF-46" value="Manufacturing" style="rounded=1;whiteSpace=wrap;html=1;" vertex="1" parent="1">
          <mxGeometry x="280" y="740" width="120" height="60" as="geometry" />
        </mxCell>
        <mxCell id="k48HczY9cWNNFRX9xtNF-47" value="" style="endArrow=classic;html=1;rounded=0;exitX=1;exitY=0.5;exitDx=0;exitDy=0;entryX=0.5;entryY=0;entryDx=0;entryDy=0;" edge="1" parent="1" source="k48HczY9cWNNFRX9xtNF-36" target="k48HczY9cWNNFRX9xtNF-46">
          <mxGeometry width="50" height="50" relative="1" as="geometry">
            <mxPoint x="300" y="810" as="sourcePoint" />
            <mxPoint x="350" y="760" as="targetPoint" />
          </mxGeometry>
        </mxCell>
        <mxCell id="k48HczY9cWNNFRX9xtNF-48" value="Retail" style="rounded=1;whiteSpace=wrap;html=1;" vertex="1" parent="1">
          <mxGeometry x="220" y="860" width="120" height="60" as="geometry" />
        </mxCell>
        <mxCell id="k48HczY9cWNNFRX9xtNF-49" value="" style="endArrow=classic;html=1;rounded=0;exitX=1;exitY=0.5;exitDx=0;exitDy=0;entryX=0.5;entryY=0;entryDx=0;entryDy=0;" edge="1" parent="1" source="k48HczY9cWNNFRX9xtNF-36" target="k48HczY9cWNNFRX9xtNF-48">
          <mxGeometry width="50" height="50" relative="1" as="geometry">
            <mxPoint x="300" y="810" as="sourcePoint" />
            <mxPoint x="350" y="760" as="targetPoint" />
          </mxGeometry>
        </mxCell>
        <mxCell id="k48HczY9cWNNFRX9xtNF-50" value="" style="endArrow=classic;html=1;rounded=0;exitX=0.5;exitY=1;exitDx=0;exitDy=0;" edge="1" parent="1" source="k48HczY9cWNNFRX9xtNF-26" target="k48HczY9cWNNFRX9xtNF-51">
          <mxGeometry width="50" height="50" relative="1" as="geometry">
            <mxPoint x="690" y="570" as="sourcePoint" />
            <mxPoint x="850" y="690" as="targetPoint" />
          </mxGeometry>
        </mxCell>
        <mxCell id="k48HczY9cWNNFRX9xtNF-51" value="Merk" style="rounded=1;whiteSpace=wrap;html=1;" vertex="1" parent="1">
          <mxGeometry x="790" y="659.9999999999998" width="120" height="60" as="geometry" />
        </mxCell>
        <mxCell id="k48HczY9cWNNFRX9xtNF-52" value="Fungsinya apa" style="rounded=1;whiteSpace=wrap;html=1;" vertex="1" parent="1">
          <mxGeometry x="1120" y="660" width="120" height="60" as="geometry" />
        </mxCell>
        <mxCell id="k48HczY9cWNNFRX9xtNF-53" value="" style="endArrow=classic;html=1;rounded=0;exitX=0.5;exitY=1;exitDx=0;exitDy=0;entryX=0.5;entryY=0;entryDx=0;entryDy=0;" edge="1" parent="1" source="k48HczY9cWNNFRX9xtNF-26" target="k48HczY9cWNNFRX9xtNF-52">
          <mxGeometry width="50" height="50" relative="1" as="geometry">
            <mxPoint x="690" y="570" as="sourcePoint" />
            <mxPoint x="740" y="520" as="targetPoint" />
          </mxGeometry>
        </mxCell>
        <mxCell id="k48HczY9cWNNFRX9xtNF-54" value="" style="endArrow=classic;html=1;rounded=0;exitX=1;exitY=0.5;exitDx=0;exitDy=0;" edge="1" parent="1" source="k48HczY9cWNNFRX9xtNF-45">
          <mxGeometry width="50" height="50" relative="1" as="geometry">
            <mxPoint x="360" y="690" as="sourcePoint" />
            <mxPoint x="510" y="730" as="targetPoint" />
          </mxGeometry>
        </mxCell>
        <mxCell id="k48HczY9cWNNFRX9xtNF-55" value="" style="endArrow=classic;html=1;rounded=0;exitX=0.5;exitY=1;exitDx=0;exitDy=0;" edge="1" parent="1" source="k48HczY9cWNNFRX9xtNF-46">
          <mxGeometry width="50" height="50" relative="1" as="geometry">
            <mxPoint x="360" y="690" as="sourcePoint" />
            <mxPoint x="430" y="870" as="targetPoint" />
          </mxGeometry>
        </mxCell>
      </root>
    </mxGraphModel>
  </diagram>
  <diagram id="l4Xeg8Mnclwtx47de0ep" name="Page-2">
    <mxGraphModel grid="1" page="1" gridSize="10" guides="1" tooltips="1" connect="1" arrows="1" fold="1" pageScale="1" pageWidth="827" pageHeight="1169" math="0" shadow="0">
      <root>
        <mxCell id="0" />
        <mxCell id="1" parent="0" />
      </root>
    </mxGraphModel>
  </diagram>
</mxfile>
